<?xml version="1.0" encoding="utf-8"?>
<!-- Generator: Adobe Illustrator 21.0.2, SVG Export Plug-In . SVG Version: 6.00 Build 0)  -->
<svg version="1.1" id="Layer_1" xmlns="http://www.w3.org/2000/svg" xmlns:xlink="http://www.w3.org/1999/xlink" x="0px" y="0px"
	 viewBox="0 0 200 80" style="enable-background:new 0 0 200 80;" xml:space="preserve">
<style type="text/css">
	.st0{fill:#52302C;}
	.st1{fill:#AC162C;}
	.st2{fill:#FFFFFF;}
</style>
<g>
	<path class="st0" d="M167.5,51.4l-0.2-0.1c-0.2,0-0.7,0.2-1.5,0.6c-3.4,1.7-5.8,2.8-7.5,3.4c-1.6,0.5-3,0.8-4,0.8
		c-1.5,0-2.7-0.6-3.5-1.9c4.5-2.5,8.8-4.8,12.8-6.7c2.3-1.6,3.5-3.4,3.5-5.5c0-1.2-0.4-2.2-1.1-2.8c-0.9-0.8-2.1-1.1-3.5-1.1
		c-1.7,0-3.6,0.5-5.6,1.5c-2,1-3.8,2.2-5.4,3.6c-4.1,3.7-6.1,6.8-6.1,9.4c-3,1.3-5.1,2.2-6.2,2.7c-0.6,0.2-1,0.3-1.3,0.3
		c-0.4,0-0.6-0.2-0.6-0.6c0-0.7,0-0.9,0.1-0.7l5.9-15c0.2-0.5,0.3-0.9,0.2-1.3c-0.2-0.2-0.5-0.3-0.8-0.3c-0.3,0-1.3,0.4-2.9,1.1
		c-0.8,0.3-2.4,3.1-4.8,8.4c-0.8,1.8-1.5,3.3-2,4.6c-0.2,0.1-0.4,0.2-0.7,0.3c-3.7,1.7-6.2,2.8-7.5,3.4c-1.2,0.5-2.1,0.8-2.6,0.8
		c-0.5,0-0.7-0.2-0.7-0.5c0-0.2,0-0.3,0.1-0.5c0.3-0.8,1.5-3.4,3.6-7.8c2-4.2,3-6.4,3.1-6.6c0.2-0.5,0-1.1-0.7-1.7
		c-0.6-0.7-1.4-1-2.3-1c-1.4,0-4.5,1.8-9.5,5.5c-5,3.7-7.9,5.6-8.8,5.6c-0.2,0-0.2-0.3,0.2-1c1.9-4,3.3-6.7,4.1-8
		c0.4-0.7,0.6-1.2,0.6-1.4c0-0.3-0.2-0.5-0.6-0.5c-1.6,0.1-2.8,0.2-3.7,0.3c-0.9,0.1-1.4,0.2-1.6,0.3c-0.2,0.1-0.3,0.3-0.5,0.7
		c-0.5,0.8-1.6,3.2-3.3,7.2c-1,2.4-1.9,4.5-2.6,6.2c-2.3,1-3.9,1.8-4.9,2.2C93.5,55.7,92.6,56,92,56c-0.5,0-0.7-0.2-0.7-0.5
		c0-0.2,0-0.3,0.1-0.5c0.3-0.8,1.5-3.4,3.6-7.8c2-4.2,3-6.4,3.1-6.6c0.2-0.5,0-1.1-0.7-1.7c-0.6-0.7-1.4-1-2.3-1
		c-1.4,0-4.5,1.8-9.5,5.5c-5,3.7-7.9,5.6-8.8,5.6c-0.2,0-0.2-0.3,0.2-1c1.9-4,3.3-6.7,4.1-8c0.4-0.7,0.6-1.2,0.6-1.4
		c0-0.3-0.2-0.5-0.6-0.5c-1.6,0.1-2.8,0.2-3.7,0.3c-0.9,0.1-1.4,0.2-1.6,0.3c-0.2,0.1-0.3,0.3-0.5,0.7c-0.5,0.8-1.6,3.2-3.3,7.2
		c-1.9,4.5-3.3,7.9-3.9,10.2c-0.3,0.8-0.2,1.2,0.3,1.2h2c0.6,0,1.2-0.3,1.9-0.9c7.7-7.3,13.1-11.8,16.3-13.6
		c1.2-0.7,2.1-1.1,2.7-1.3c0.2-0.1,0.3,0,0.3,0.1c0,0.2-0.1,0.5-0.3,0.9c-1.1,2.4-2,4.5-2.8,6.2c-1.8,3.9-2.7,6-2.7,6.3
		c0,0.7,0.3,1.3,1,1.8c0.6,0.5,1.4,0.7,2.1,0.7c2.4,0,5.3-0.9,8.8-2.7c0.4-0.2,0.7-0.4,1-0.5c-0.3,0.7-0.5,1.4-0.7,2
		c-0.3,0.8-0.2,1.2,0.3,1.2h2c0.6,0,1.2-0.3,1.9-0.9c7.7-7.3,13.1-11.8,16.3-13.6c1.2-0.7,2.1-1.1,2.7-1.3c0.2-0.1,0.3,0,0.3,0.1
		c0,0.2-0.1,0.5-0.3,0.9c-1.1,2.4-2,4.5-2.8,6.2c-1.8,3.9-2.7,6-2.7,6.3c0,0.7,0.3,1.3,1,1.8c0.7,0.5,1.4,0.7,2.1,0.7
		c2.4,0,5.3-0.9,8.9-2.7c1.9-1,3.3-1.7,4.3-2.3c-0.6,1.6-0.9,2.7-0.9,3.2c0,1.1,1.1,1.6,3.2,1.7c0.5,0,1.8-0.4,3.8-1.1
		c1.9-0.7,3.2-1.2,3.9-1.5c1.3-0.7,2.4-1.3,3.2-1.7c0.6,2.9,2.7,4.3,6.3,4.3c2,0,4.2-0.4,6.6-1.3c3.3-1.2,6.1-2.6,8.6-4.2
		C167.4,52.3,167.6,51.9,167.5,51.4 M151.7,49.7c0.5-1.2,1.6-2.9,3.1-5c2.1-2.9,3.9-4.3,5.2-4.3c0.5,0,1,0.2,1.3,0.6
		c0.4,0.4,0.5,0.9,0.5,1.4c0,1.4-1.2,2.9-3.7,4.5c-4.2,2.7-6.4,4-6.6,3.9C151.4,50.6,151.4,50.2,151.7,49.7"/>
	<path class="st0" d="M59.2,44.6l-2.5,5.5c-0.3,0.6-0.7,1.4-1.3,2.4c-0.8,1.7-1.4,2.9-1.7,3.7c-0.3,0.7-0.3,1.2-0.1,1.5
		c0.5,0.2,1,0.3,1.3,0.3c2.3,0,3.9-0.7,4.7-2.1c0.2-0.2,0.9-2,2.3-5.4l1.9-4.5c0.5-1.2,1-2.4,1.5-3.5l-6.1,1.9L59.2,44.6"/>
	<g>
		<path class="st0" d="M82.4,2c0-0.4-0.1-0.6-0.2-0.7c-0.4-0.2-1-0.3-1.9-0.3c-2,0-3.6,0.9-4.7,2.9c-0.6,1-1.1,2-1.7,3
			c-0.6,1-1.3,2.1-2.3,3.3C65.8,18,60.8,25,56.4,31.1c-4.1,5.4-7,9.1-8.9,11.2l-3.8,4.3c-7.5,7.9-14.4,11.8-20.6,11.5
			c-2.4-0.1-4.1-1.9-5-5.4c-0.3-1.1-0.6-1.8-1.1-1.9c-0.7-0.2-1.8,0.1-3.2,1c-1.1,0.7-1.6,1.2-1.6,1.6c-0.2,1.6,0.8,3.4,2.9,5.5
			c2.3,2.3,4.8,3.3,7.6,3.1c3.8-0.3,7.5-1.5,11.1-3.6c3.8-2.3,8.1-5.9,12.7-10.9l3.8-4.2C55.7,37,62.1,28.5,69.5,18
			c0.3,0,0.3,0.4-0.2,1.2c-1.1,2.9-2.1,5.8-3.2,8.7c-2,5.5-3.9,9.9-5.7,14.1l6.3-2.4c5.6-13.2,10.6-24.7,15-34.6
			C82.2,3.8,82.4,2.9,82.4,2"/>
	</g>
	<path class="st0" d="M138.5,30c0,0,8.9,4.1,12.8-1.3C151.3,28.8,150,37,138.5,30"/>
	<path class="st0" d="M36.7,46.2c-1.2-0.1-2.2-0.3-3.2-0.5C35.4,46.3,36.7,46.2,36.7,46.2 M23.2,35c0,0,1.4,8.4,10.3,10.7
		C30.7,44.7,26.6,42.1,23.2,35 M88.5,25.3c0,0,9-3.5,14.7-4.2C100.9,21.4,94.5,22.2,88.5,25.3 M103.2,21.2c0.5-0.1,0.8-0.1,0.9-0.1
		C103.8,21.1,103.5,21.1,103.2,21.2 M90,26.2c0,0,26.5-8.4,40-2.6C130,23.6,114.4,16.3,90,26.2"/>
	<path class="st0" d="M114.9,25.1c-1.5,0.1-2.9,0.2-4.1,0.3c-10.2,0.8-23.1,3-37.7,8.4c-35.8,13.1-44.9,4.2-44.9,4.2
		s8.5,12.8,32.2,3.9c18.3-6.8,33.8-15.1,54.5-16.5"/>
	<path class="st1" d="M144.8,16.1c-0.7,0-1.3,0.1-2,0.3c-1.9-4.2-7.1-12.1-19.2-11.5c0,0-1.6,1.5-0.4,1.8c0,0,13.2-2.6,19.9,11.5
		c0.2,0.4,0.3,0.9,0.4,1.3c0,0-1-1.8-2-2.6c-2.1,1.1-3.5,3.4-3.5,5.9c0,3.7,3,6.8,6.8,6.8c3.7,0,6.8-3,6.8-6.8
		C151.6,19.1,148.5,16.1,144.8,16.1 M150.1,24.1c-0.1,0.3-0.4,0.5-0.7,0.4c-0.2,0-0.4-0.2-0.4-0.4v-0.2c0.1-0.3,0.1-0.5,0.1-0.8
		c0.1-1.7-0.8-2.7-0.8-2.8l-0.1-0.4l0.2-0.4c0.2-0.2,0.6-0.2,0.8,0c0.1,0.1,1.2,1.4,1.1,3.5C150.2,23.4,150.1,23.8,150.1,24.1"/>
	<path class="st2" d="M148.2,20.3l-0.1-0.4L148.2,20.3c0,0,0.9,1,0.8,2.8C149.1,21.4,148.3,20.3,148.2,20.3"/>
	<path class="st2" d="M150.1,24.1c-0.1,0.3-0.4,0.5-0.7,0.4c-0.2,0-0.4-0.2-0.4-0.4c0,0.2,0.2,0.4,0.4,0.4
		C149.7,24.6,150,24.4,150.1,24.1c0.1-0.3,0.1-0.7,0.1-1C150.2,23.4,150.1,23.7,150.1,24.1"/>
	<path class="st0" d="M137.3,21.9c0,0-1-0.3-1.5-0.7l0,0l-0.1,0v0c-0.1-0.1-0.2-0.1-0.4-0.1c-0.4,0-0.7,0.4-0.7,0.7
		c0,0.3,0.3,0.7,0.7,0.7c0.2,0,0.3-0.2,0.5-0.3C136.1,21.8,136.7,21.8,137.3,21.9 M152.2,24.3l-0.4-0.2l-0.5,0.1
		c-2.1,0-2.7-0.5-3.7-1.4c-0.3-0.3-0.7-0.6-1.2-1c-1.8-1.3-3.5-1.9-5.1-1.5c-1.5,0.3-2.6,1.2-3.3,1.9c-0.3,0.3-0.7,0.4-1.1,0.4
		c-0.2,0-0.4-0.1-0.6,0c-0.4,0.2-0.4,0.7-0.2,0.9c0.2,0.3,0.7,0.4,1,0.2l0,0c0.8,6,7.1,6.3,7.2,6.3c6.3,0.2,8-5.2,8-5.3L152.2,24.3"
		/>
	<path class="st2" d="M145.8,22.3c0,0-2.8-2.4-5.9-0.7l-0.1,0.3l0.3,0.1c2.8-1.5,5.3,0.6,5.4,0.7l0.3,0L145.8,22.3 M139.2,22
		l-0.3,0.2l0,0.3l0.3,0l0.3-0.2l0-0.3L139.2,22"/>
	<path class="st0" d="M115,25.4c0.7,0,1.4-0.1,2.2-0.1c14.3-0.3,25.8,4.1,25.8,4.1l3.2-0.2c-8.8-4.5-22.5-4.6-31.2-4.1"/>
	<g>
		<path class="st0" d="M186.7,38.7c-0.8-0.4-1.4-0.6-1.9-0.6c-1.4,0-3,0.7-4.9,2.2c-1.9,1.5-2.9,2.9-2.9,4.3c0,0.7,0.4,2,1.3,3.9
			c0.9,1.9,1.3,3.1,1.3,3.5c0,2.4-1,3.6-3.1,3.6c-1.3,0-2.2-0.5-2.9-1.5c-0.7-1-1-2.3-0.9-3.9v-2.7c0-1.1-0.2-1.6-0.5-1.6
			c-0.1,0-0.2,0-0.3,0.1c-1.3,0.9-2.2,1.6-2.7,2.1c-0.7,0.6-1.1,1.3-1.1,2.1V52l0.1,1.5c0.2,0.9,0.6,1.8,1.4,2.7
			c1.2,1.4,2.7,2.1,4.7,2.1c1.9,0,3.8-0.8,5.8-2.4c2.4-2,3.6-4,3.6-6.1c0-0.3-0.7-2.6-2.1-6.7c-0.2-0.5-0.2-0.9-0.2-1.3
			c0-0.6,0.2-0.9,0.7-0.9c0.3,0,0.7,0.1,1,0.3c0.8,0.4,1.5,0.8,1.9,1.2c0.3,0.2,0.5,0.3,0.7,0.3c0.5-0.5,1-0.9,1.3-1.3
			c0.6-0.6,1-1.2,1-1.5C187.9,39.6,187.5,39.2,186.7,38.7"/>
	</g>
	<path class="st0" d="M122.9,64.5l-0.7,0l0,0l-17.4,1.8C97.6,67,90.7,67.7,83.7,68c-5.5,0.2-11.2,0.1-17.4-0.3
		c-4.3-0.3-8.6-0.8-12.9-1.5c-4.7-0.8-10.6-2.1-13.3-3.6c-0.6-0.3-0.9-0.7-1-1.2c0-0.1-0.1-0.6,0.1-0.9c0.1-0.2,0.4-0.3,0.7-0.3
		c0.5,0,0.9,0.2,1.1,0.6c0.1,0.2,0.1,0.5,0,0.7c0.2,0.2,0.6,0.5,1,0.7c3.3,1.1,6.1,1.9,9,2.5c4.4,0.8,9.2,1.4,15.2,1.8
		c6.9,0.5,12.2,0.6,17.3,0.4c6.9-0.3,13.5-0.9,20.9-1.7l15.8-1.6l0,0c0.2,0,0.4,0,0.6-0.1l14.1-1.2c1.6-0.1,3.2-0.2,4.8-0.3
		c5.5-0.2,11.2-0.1,17.4,0.3c4.2,0.3,8.6,0.8,12.9,1.5c4.7,0.8,10.6,2.1,13.3,3.6c0.6,0.3,0.9,0.7,1,1.2c0,0.1,0.1,0.6-0.1,0.9
		c-0.1,0.2-0.4,0.3-0.7,0.3c-0.5,0-0.9-0.2-1.1-0.6c-0.1-0.2-0.1-0.5,0-0.7c-0.2-0.2-0.6-0.5-1-0.7c-3.3-1.2-6.1-1.9-9.1-2.5
		c-4.4-0.8-9.2-1.4-15.2-1.8c-6.9-0.5-12.3-0.6-17.3-0.4c-2.3,0.1-4.5,0.2-6.7,0.4"/>
	<path class="st0" d="M46.3,73.7c-0.2,0.4-0.7,1.2-0.9,1.5l-4.8-1.6l0.1-0.3c0.8,0.2,0.9,0.2,1.2-0.6l1.2-3.6
		c0.3-0.8,0.2-0.9-0.5-1.2l0.1-0.3l4.5,1.5c0,0.2-0.2,0.9-0.4,1.5l-0.4-0.1c0-0.4,0-0.7-0.1-0.9c-0.1-0.2-0.3-0.4-0.9-0.6l-0.5-0.2
		c-0.4-0.1-0.4-0.1-0.5,0.2l-0.7,2l0.6,0.2c0.8,0.3,0.9,0.3,1.3-0.4l0.3,0.1l-0.6,1.9l-0.3-0.1c0.1-0.7,0-0.8-0.8-1.1l-0.6-0.2
		L43.2,73c-0.1,0.4-0.2,0.7,0,0.9c0.1,0.1,0.5,0.3,0.8,0.4c0.5,0.2,0.8,0.2,1.2,0c0.3-0.2,0.5-0.4,0.8-0.8"/>
	<path class="st0" d="M54.9,71c-0.5-0.1-0.8,0.1-1,0.4c-0.1,0.3-0.2,0.6-0.4,1.3l-0.2,1.1c-0.2,1-0.6,1.8-1.2,2.3
		c-0.6,0.4-1.3,0.5-2,0.3c-0.6-0.1-1.2-0.4-1.6-0.9c-0.5-0.5-0.6-1.3-0.3-2.5l0.5-2.3c0.2-0.9,0.1-1-0.6-1.2l0.1-0.3l2.9,0.6
		l-0.1,0.3c-0.7-0.1-0.8,0-1,0.9l-0.4,2.1c-0.3,1.5,0,2.4,1.1,2.7c1.2,0.2,1.9-0.5,2.2-2.2l0.2-1c0.2-0.7,0.2-1.1,0.2-1.4
		c0-0.4-0.2-0.6-0.8-0.8l0.1-0.3l2.5,0.5"/>
	<path class="st0" d="M60.9,78l-0.3,0c-1.2-0.2-1.6-0.5-1.9-1.2c-0.2-0.4-0.4-1-0.6-1.6c-0.1-0.3-0.3-0.5-0.6-0.5l-0.2,0l-0.2,1.4
		c-0.1,0.8,0,0.9,0.7,1.1l0,0.3l-3-0.4l0-0.3c0.8,0,0.9-0.1,1-0.9l0.5-3.8c0.1-0.8,0-0.9-0.7-1.1l0-0.3l2.8,0.3
		c0.9,0.1,1.4,0.3,1.7,0.6c0.4,0.3,0.6,0.8,0.5,1.4c-0.1,0.9-0.7,1.3-1.4,1.5c0.1,0.3,0.4,1,0.6,1.5c0.3,0.6,0.5,0.9,0.6,1.2
		c0.2,0.3,0.3,0.4,0.6,0.5 M57.6,74.3c0.4,0.1,0.8,0,1-0.1c0.4-0.2,0.6-0.6,0.6-1.1c0.1-1-0.4-1.5-1-1.6c-0.3,0-0.4,0-0.5,0
		c-0.1,0.1-0.1,0.1-0.1,0.4l-0.3,2.4L57.6,74.3z"/>
	<path class="st0" d="M65.7,71.7c1.8,0.1,3.2,1.6,3,3.5c-0.2,2.1-1.8,3.3-3.7,3.2c-2-0.1-3.3-1.7-3.1-3.6
		C62,73.1,63.4,71.5,65.7,71.7 M65.4,72c-1-0.1-1.9,0.9-2,2.7c-0.1,1.7,0.5,3.2,1.8,3.3c0.9,0.1,1.8-0.8,1.9-2.6
		C67.3,73.4,66.6,72.1,65.4,72L65.4,72z"/>
	<path class="st0" d="M76.9,78.8l0-0.3c0.6-0.1,0.6-0.2,0.5-0.6c-0.1-0.3-0.2-0.7-0.4-1.1l-1.9,0c-0.1,0.3-0.3,0.7-0.4,1.1
		c-0.1,0.5-0.1,0.6,0.6,0.7l0,0.3l-2.2,0l0-0.3c0.7-0.1,0.8-0.2,1.1-1l2.1-5.1l0.5-0.1c0.6,1.8,1.2,3.5,1.8,5.2
		c0.3,0.9,0.5,1,1.1,1.1l0,0.3 M76.1,74L76.1,74c-0.3,0.7-0.6,1.4-0.9,2.1l1.6,0L76.1,74z"/>
	<g>
		<path class="st0" d="M86.3,78.6l0-0.3c0.7-0.1,0.8-0.2,0.8-1.1l-0.2-3.8l-0.1,0l-2,5.3l-0.3,0l-2.3-5l0,0l0,2.6
			c0,0.8,0,1.3,0.1,1.6c0.1,0.4,0.3,0.5,0.9,0.6l0,0.3l-2.4,0.1l0-0.3c0.6-0.1,0.7-0.3,0.8-0.6c0-0.3,0.1-0.8,0.1-1.9l0.1-2
			c0-1.1,0-1.3-0.9-1.3l0-0.3l2.1-0.1l2.1,4.3l1.8-4.5l2-0.1l0,0.3c-0.8,0.1-0.8,0.2-0.8,1l0.3,3.7c0.1,0.9,0.1,1,0.9,1l0,0.3"/>
	</g>
	<path class="st0" d="M95.8,76.3c0,0.5-0.2,1.4-0.2,1.7l-5.1,0.4l0-0.3c0.8-0.1,0.9-0.2,0.9-1.1L91,73.1c-0.1-0.9-0.2-0.9-0.9-0.9
		l0-0.3l4.7-0.4c0,0.2,0.1,0.9,0.2,1.5l-0.4,0.1c-0.1-0.3-0.3-0.7-0.5-0.8c-0.2-0.2-0.5-0.2-1-0.2l-0.5,0c-0.4,0-0.4,0.1-0.4,0.4
		l0.2,2.1l0.7-0.1c0.8-0.1,1-0.1,1-0.8l0.4,0l0.2,2l-0.4,0c-0.2-0.7-0.3-0.7-1.2-0.7l-0.7,0.1l0.1,1.7c0,0.5,0.1,0.7,0.3,0.8
		c0.2,0.1,0.5,0.1,0.9,0c0.5,0,0.9-0.1,1.1-0.4c0.2-0.2,0.3-0.6,0.5-1"/>
	<path class="st0" d="M103.3,77.3l-0.3,0c-1.3,0.1-1.7-0.2-2.1-0.8c-0.3-0.4-0.6-0.9-1-1.4c-0.2-0.3-0.4-0.4-0.7-0.4l-0.2,0l0.1,1.5
		c0.1,0.8,0.2,0.9,0.9,0.9l0,0.3l-3,0.3l0-0.3c0.7-0.1,0.8-0.3,0.8-1.1l-0.4-3.8c-0.1-0.8-0.2-0.9-0.9-0.9l0-0.3l2.8-0.3
		c0.9-0.1,1.4,0,1.8,0.2c0.4,0.2,0.7,0.6,0.8,1.3c0.1,0.9-0.4,1.4-1.1,1.7c0.2,0.3,0.6,0.9,0.9,1.3c0.4,0.5,0.7,0.8,0.9,1
		c0.2,0.2,0.4,0.3,0.6,0.4 M99.2,74.4c0.4,0,0.7-0.1,0.9-0.4c0.3-0.3,0.4-0.7,0.4-1.2c-0.1-1.1-0.8-1.4-1.3-1.3
		c-0.2,0-0.4,0.1-0.4,0.1c-0.1,0.1-0.1,0.2-0.1,0.4l0.2,2.4L99.2,74.4z"/>
	<path class="st0" d="M104.4,77.1l0-0.3c0.7-0.1,0.8-0.2,0.7-1.1l-0.4-3.8c-0.1-0.8-0.2-0.9-0.9-0.9l0-0.3l3-0.3l0,0.3
		c-0.7,0.1-0.8,0.2-0.7,1.1l0.4,3.8c0.1,0.8,0.2,0.9,0.9,0.9l0,0.3"/>
	<path class="st0" d="M114.8,74.3c-0.1,0.5-0.3,1.3-0.4,1.6c-0.3,0.1-1.1,0.4-1.8,0.4c-2.6,0.3-3.9-1.3-4.1-2.9
		c-0.2-2,1.2-3.6,3.6-3.9c0.8-0.1,1.6,0.1,1.8,0.1c0.1,0.5,0.3,1,0.4,1.6l-0.4,0.1c-0.4-1.2-1.3-1.4-2-1.3c-1.4,0.1-2.1,1.6-1.9,3.1
		c0.2,1.8,1.3,2.9,2.6,2.8c0.8-0.1,1.4-0.7,1.8-1.7"/>
	<path class="st0" d="M119.9,75.5l0-0.3c0.6-0.2,0.6-0.3,0.4-0.7c-0.1-0.3-0.3-0.7-0.5-1.1l-1.9,0.2c-0.1,0.3-0.2,0.7-0.3,1.1
		c-0.1,0.5-0.1,0.6,0.7,0.6l0,0.3l-2.2,0.2l0-0.3c0.6-0.1,0.8-0.3,1-1.1l1.5-5.3l0.5-0.2c0.8,1.7,1.6,3.3,2.4,5c0.4,0.8,0.6,1,1.2,1
		l0,0.3 M118.5,70.8L118.5,70.8c-0.2,0.8-0.4,1.5-0.6,2.2l1.6-0.2L118.5,70.8z"/>
	<path class="st0" d="M130.3,68.4c-0.5,0.1-0.7,0.2-0.7,0.7c0,0.3,0,0.8,0.1,1.7l0.3,4l-0.5,0l-4.6-4.6l0,0l0.2,2.2
		c0.1,0.9,0.2,1.3,0.2,1.6c0.1,0.4,0.3,0.6,1,0.6l0,0.3l-2.4,0.2l0-0.3c0.6-0.1,0.8-0.3,0.8-0.7c0-0.3,0-0.8,0-1.7l-0.2-2.1
		c-0.1-0.6-0.1-0.8-0.3-1c-0.2-0.2-0.4-0.3-0.9-0.3l0-0.3l1.8-0.2l4.2,4l0,0l-0.2-1.8c-0.1-0.9-0.2-1.3-0.2-1.6
		c-0.1-0.4-0.3-0.6-1-0.6l0-0.3l2.4-0.2"/>
	<path class="st0" d="M138.5,70.5c1.2,0.1,2,0.5,2,1.5c0,0.7-0.3,1.2-0.9,1.5c-0.5,0.3-1.3,0.5-2.1,0.5l-2.5,0.1l0-0.3
		c0.8-0.1,0.8-0.2,0.8-1l-0.2-3.8c0-0.8-0.1-0.9-0.8-0.9l0-0.3l2.9-0.1c0.8,0,1.3,0,1.7,0.3c0.4,0.2,0.6,0.6,0.6,1.1
		C140,69.8,139.2,70.3,138.5,70.5 M137.2,70.4c1,0,1.4-0.4,1.3-1.3c0-0.9-0.6-1.2-1.1-1.2c-0.2,0-0.4,0.1-0.4,0.1
		c-0.1,0.1-0.1,0.2-0.1,0.4l0.1,1.9L137.2,70.4z M137.1,72.7c0,0.7,0.2,0.9,0.8,0.9c0.6,0,1.2-0.5,1.1-1.5c0-0.9-0.7-1.4-1.8-1.3
		l-0.2,0L137.1,72.7z"/>
	<path class="st0" d="M145.3,73.8v-0.3c0.6-0.1,0.6-0.2,0.5-0.7c-0.1-0.3-0.3-0.7-0.4-1.1l-1.9,0c-0.1,0.3-0.2,0.7-0.4,1.1
		c-0.1,0.5-0.1,0.6,0.6,0.7l0,0.4l-2.2,0l0-0.4c0.7-0.1,0.8-0.2,1.1-1l2-5.1l0.5-0.1c0.6,1.7,1.3,3.5,1.9,5.2c0.3,0.9,0.5,1,1.1,1.1
		v0.3 M144.5,69L144.5,69c-0.3,0.7-0.6,1.5-0.8,2.2l1.6,0L144.5,69z"/>
	<path class="st0" d="M154.1,74c-0.4-0.6-1.2-1.8-1.9-2.9c-0.2-0.3-0.3-0.4-0.5-0.4l-0.1,1.8c0,0.8,0,0.9,0.8,1l0,0.3l-3-0.1l0-0.3
		c0.7,0,0.8-0.1,0.9-1l0.2-3.8c0-0.8,0-0.9-0.8-1l0-0.3l2.9,0.1l0,0.3c-0.7,0-0.8,0.1-0.8,1l-0.1,1.7c0.2-0.1,0.5-0.2,0.8-0.5
		c0.7-0.6,1.1-1.1,1.5-1.5c0.3-0.3,0.2-0.5-0.2-0.5l-0.2,0l0-0.3l2.6,0.1l0,0.3c-0.6,0-1,0.1-1.6,0.6c-0.6,0.5-1.1,1-1.5,1.4
		c0.6,1,1.3,2,2,3c0.4,0.5,0.7,0.7,1,0.8l0,0.3"/>
	<path class="st0" d="M162.7,73c-0.1,0.4-0.4,1.3-0.5,1.6l-5.1-0.4l0-0.3c0.9,0,1,0,1-0.9l0.3-3.8c0.1-0.9,0-0.9-0.7-1l0-0.3
		l4.7,0.4c0,0.2,0,0.9,0,1.5l-0.4,0c-0.1-0.4-0.2-0.7-0.3-0.9c-0.2-0.2-0.4-0.3-1-0.3l-0.5,0c-0.4,0-0.4,0-0.4,0.3l-0.2,2.1l0.7,0.1
		c0.8,0.1,1,0,1.2-0.7l0.4,0l-0.2,2l-0.4,0c-0.1-0.7-0.2-0.8-1-0.9l-0.7-0.1l-0.1,1.7c0,0.5,0,0.7,0.2,0.8c0.2,0.1,0.5,0.1,0.9,0.2
		c0.5,0,0.9,0,1.1-0.2c0.2-0.2,0.4-0.5,0.6-0.9"/>
	<path class="st0" d="M169.9,75.7l-0.3-0.1c-1.2-0.2-1.6-0.6-1.9-1.2c-0.2-0.4-0.4-1-0.6-1.6c-0.1-0.3-0.3-0.5-0.6-0.5l-0.2,0
		l-0.2,1.4c-0.1,0.8,0,0.9,0.7,1.1l0,0.3l-3-0.4l0.1-0.3c0.7,0,0.9-0.1,1-0.9l0.5-3.8c0.1-0.8,0-0.9-0.7-1.1l0-0.3l2.8,0.4
		c0.9,0.1,1.4,0.3,1.7,0.6c0.4,0.3,0.6,0.8,0.5,1.4c-0.1,0.9-0.8,1.3-1.5,1.4c0.1,0.3,0.4,1,0.6,1.5c0.3,0.6,0.4,0.9,0.6,1.2
		c0.2,0.3,0.3,0.4,0.5,0.5 M166.6,71.9c0.4,0.1,0.8,0,1-0.1c0.4-0.2,0.6-0.6,0.6-1.1c0.1-1-0.4-1.5-1-1.6c-0.2,0-0.4,0-0.5,0
		c-0.1,0.1-0.1,0.1-0.1,0.4l-0.3,2.4L166.6,71.9z"/>
	<path class="st0" d="M177.7,70.9c-0.6-0.1-0.9,0.1-1.3,0.6c-0.5,0.5-0.8,0.9-1.5,1.7c-0.2,0.2-0.3,0.3-0.3,0.6l-0.3,1.3
		c-0.2,0.9-0.1,1,0.7,1.2l-0.1,0.3l-3.2-0.6l0.1-0.3c0.8,0.1,0.9,0,1.1-0.8l0.2-1.1c0-0.2,0-0.3,0-0.6c-0.2-0.6-0.4-1.3-0.8-2.5
		c-0.2-0.7-0.4-0.9-0.9-1l0.1-0.3l2.8,0.6l-0.1,0.3c-0.7,0-0.7,0.1-0.6,0.5c0.2,0.7,0.5,1.5,0.7,2.4c0.4-0.5,1.1-1.3,1.4-1.9
		c0.2-0.4,0.3-0.5-0.5-0.7l0.1-0.3l2.3,0.5"/>
	<path class="st0" d="M173.4,37.9c1.8-2.9,2-5.6,1.2-8.3c0,0-3.4-2.2-3.4,0C171.3,29.7,172.8,32.9,173.4,37.9"/>
</g>
<g>
</g>
<g>
</g>
<g>
</g>
<g>
</g>
<g>
</g>
<g>
</g>
</svg>
